<svg width="1600" height="900" viewBox="0 0 1600 900" fill="none" xmlns="http://www.w3.org/2000/svg">
<defs>
  <linearGradient id="bg" x1="0" y1="0" x2="1600" y2="900" gradientUnits="userSpaceOnUse">
    <stop stop-color="#FBFCFC"/>
    <stop offset="1" stop-color="#E7EEEB"/>
  </linearGradient>
  <radialGradient id="glowA" cx="0" cy="0" r="1" gradientUnits="userSpaceOnUse" gradientTransform="translate(410 230) rotate(18) scale(420 320)">
    <stop stop-color="#FFFFFF" stop-opacity="0.92"/>
    <stop offset="1" stop-color="#FFFFFF" stop-opacity="0"/>
  </radialGradient>
  <radialGradient id="glowB" cx="0" cy="0" r="1" gradientUnits="userSpaceOnUse" gradientTransform="translate(1170 690) rotate(-24) scale(420 300)">
    <stop stop-color="#D8F4E8" stop-opacity="0.7"/>
    <stop offset="1" stop-color="#D8F4E8" stop-opacity="0"/>
  </radialGradient>
</defs>
<rect width="1600" height="900" fill="url(#bg)"/>
<rect width="1600" height="900" fill="url(#glowA)"/>
<rect width="1600" height="900" fill="url(#glowB)"/>
<g opacity="0.26" stroke="#B6C6BF">
  <path d="M-80 164C220 108 492 110 758 172C1002 229 1239 243 1680 120"/>
  <path d="M-40 614C243 546 510 547 801 610C1046 664 1275 664 1648 571"/>
  <path d="M-18 774C262 721 505 721 764 775C1027 831 1256 834 1607 759"/>
</g>
</svg>
