<svg width="1600" height="900" viewBox="0 0 1600 900" fill="none" xmlns="http://www.w3.org/2000/svg">
<defs>
  <linearGradient id="bg" x1="0" y1="0" x2="1600" y2="900" gradientUnits="userSpaceOnUse">
    <stop stop-color="#142031"/>
    <stop offset="1" stop-color="#030712"/>
  </linearGradient>
  <radialGradient id="glowA" cx="0" cy="0" r="1" gradientUnits="userSpaceOnUse" gradientTransform="translate(402 194) rotate(22) scale(420 300)">
    <stop stop-color="#1B4B5C" stop-opacity="0.55"/>
    <stop offset="1" stop-color="#1B4B5C" stop-opacity="0"/>
  </radialGradient>
  <radialGradient id="glowB" cx="0" cy="0" r="1" gradientUnits="userSpaceOnUse" gradientTransform="translate(1186 706) rotate(-18) scale(420 300)">
    <stop stop-color="#173D56" stop-opacity="0.42"/>
    <stop offset="1" stop-color="#173D56" stop-opacity="0"/>
  </radialGradient>
</defs>
<rect width="1600" height="900" fill="url(#bg)"/>
<rect width="1600" height="900" fill="url(#glowA)"/>
<rect width="1600" height="900" fill="url(#glowB)"/>
<g opacity="0.22" stroke="#365269">
  <path d="M-80 156C203 110 500 110 780 168C1015 217 1240 228 1680 122"/>
  <path d="M-36 610C248 548 510 548 802 606C1045 655 1280 664 1650 569"/>
  <path d="M-10 772C260 720 505 718 770 770C1028 822 1264 832 1608 756"/>
</g>
</svg>
